<?xml version="1.0" encoding="UTF-8"?>
<!DOCTYPE svg PUBLIC "-//W3C//DTD SVG 1.1//EN" "http://www.w3.org/Graphics/SVG/1.1/DTD/svg11.dtd">
<!-- Creator: CorelDRAW -->
<svg xmlns="http://www.w3.org/2000/svg" xml:space="preserve" width="3000px" height="900px" style="shape-rendering:geometricPrecision; text-rendering:geometricPrecision; image-rendering:optimizeQuality; fill-rule:evenodd; clip-rule:evenodd"
viewBox="0 0 3000 999.999"
 xmlns:xlink="http://www.w3.org/1999/xlink">
 <defs>
  <style type="text/css">
   <![CDATA[
    .str1 {stroke:#1F1A17;stroke-width:3.20079}
    .str3 {stroke:#1F1A17;stroke-width:16.5354;stroke-linecap:round}
    .str2 {stroke:#1F1A17;stroke-width:21.0012}
    .str0 {stroke:#1F1A17;stroke-width:42.0035}
    .fil3 {fill:none}
    .fil0 {fill:none;fill-rule:nonzero}
    .fil2 {fill:#3D6E9A}
    .fil4 {fill:#E77817}
    .fil1 {fill:#3D6E9A;fill-rule:nonzero}
    .fil5 {fill:#E77817;fill-rule:nonzero}
   ]]>
  </style>
 </defs>
 <g id="Слой_x0020_1">
  <metadata id="CorelCorpID_0Corel-Layer"/>
  <circle class="fil0 str0" transform="matrix(1.03718 -0.404697 0.2159 0.832314 554.741 503.106)" r="205.233"/>
  <g id="_85452984">
   <path id="_86489232" class="fil1 str0" d="M475.136 417.21l-73.578 109.717 -270.931 -26.5713 147.163 -219.446 197.344 136.302 0.0011811 -0.0011811zm-36.7772 54.8445m-172.257 41.5831m-61.8921 -123.015m172.26 -41.5583z"/>
   <polygon id="_85453176" class="fil2 str0" points="401.564,526.923 475.146,417.197 277.788,280.907 130.629,500.36 "/>
  </g>
  <g id="_85453512">
   <path id="_85453440" class="fil1 str0" d="M508.198 620.662l130.345 -50.8665 122.435 195.291 -260.699 101.72 7.91811 -246.144zm65.1638 -25.4339m126.397 72.2126m-69.137 148.507m-126.393 -72.2126z"/>
   <polygon id="_85453104" class="fil2 str0" points="638.546,569.796 508.195,620.655 500.277,866.804 760.974,765.085 "/>
  </g>
  <g id="_85453056">
   <path id="_85453920" class="fil1 str0" d="M709.756 429.201l-98.4142 -54.9189 140.081 -243.804 196.782 109.852 -238.449 188.872 0 -0.0011811zm-49.2154 -27.4618m20.8417 -149.356m168.438 -66.9661m-20.85 149.356z"/>
   <polygon id="_86489280" class="fil2 str0" points="611.347,374.277 709.74,429.207 948.206,240.337 751.419,130.476 "/>
  </g>
  <circle class="fil3 str1" transform="matrix(1.03718 -0.404697 0.2159 0.832314 551.497 480.913)" r="69.0957"/>
  <path class="fil4 str2" d="M623.165 452.946c-8.23701,-31.7551 -47.0102,-44.9858 -86.5854,-29.5453 -39.5717,15.4406 -64.9831,53.7177 -56.7461,85.4728 8.23701,31.7587 47.015,44.9894 86.5819,29.55 39.5752,-15.4406 64.9878,-53.7177 56.7508,-85.4764l-0.0011811 -0.0011811z"/>
  <polygon class="fil5" points="1327.08,350.459 1240.41,512.542 1329.99,683.708 1225.74,683.708 1184.74,602.875 1150.08,683.708 1047.58,683.708 1139.08,515.209 1052.41,350.459 1155.74,350.459 1194.49,426.125 1225.74,350.459 "/>
  <path id="1" class="fil5" d="M1339.74 350.459l99.0839 0 0 197.999c0,15.4169 2.49921,25.7504 7.5,30.9177 4.91575,5.08228 14.7496,7.66654 29.4165,7.66654l5.16614 0 0 96.6661 -26.4165 0c-36.1665,0 -64.3335,-10.5 -84.4996,-31.5839 -20.1673,-21.0827 -30.2504,-50.3327 -30.2504,-87.8327l0 -213.833z"/>
  <path id="12" class="fil5" d="M1622.74 568.459l0 -87.4169c20.0008,0 30,-7.66654 30,-22.9169 0,-13.9996 -7.66654,-21 -22.9996,-21 -15.4169,0 -23.1661,9.58346 -23.1661,28.8331l0 217.75 -99.0839 0 0 -207.5c0,-21.5008 2.16732,-39.1665 6.50079,-52.9169 4.24961,-13.7504 11.6657,-26.5831 22.0831,-38.4165 11.6669,-13.1669 26.3327,-23.5831 43.9157,-31.2496 17.5843,-7.66654 35.7508,-11.5004 54.4169,-11.5004 33.9165,0 62.3339,11.4165 85.3335,34.1669 23.0835,22.8331 34.5839,51.0827 34.5839,84.75 0,32.7496 -10.3335,59.25 -31.0004,79.5827 -18.9165,18.75 -47.3339,28.0831 -85.4161,28.0831l-15.1677 -0.249213z"/>
  <path id="123" class="fil5" d="M1973.08 480.125l0 74.25 -64.7504 0c-8.74961,0 -15,1.33346 -18.6661,3.91654 -3.66732,2.58307 -5.50039,6.91654 -5.50039,13.0831 0,7.00039 1.83307,11.5831 5.58307,13.8331 3.75,2.16732 11.4165,3.25039 22.9996,3.25039l66.6673 0 0 95.25 -77.9173 0c-36.5823,0 -64.5827,-8.74961 -83.9161,-26.25 -19.4161,-17.5004 -29.0835,-42.75 -29.0835,-75.8327l0 -130.584c0,-31.9169 9.16654,-56.6669 27.4169,-74.25 18.3331,-17.5831 44.0835,-26.3327 77.25,-26.3327l86.25 0 0 95.6657 -63.2504 0c-17.0835,0 -25.6665,5.58307 -25.6665,16.6665 0,6.50079 1.99961,11.0008 6.08386,13.5 4.08307,2.58425 11.3327,3.83386 21.75,3.83386l54.75 0z"/>
  <path id="1234" class="fil5" d="M2320.13 399.056c39.3059,0 73.0559,14.3055 101.18,42.9165 28.1256,28.611 42.2232,62.9161 42.2232,102.778 0,40.5555 -14.1673,75 -42.5008,103.402 -28.3335,28.3335 -62.8465,42.5008 -103.333,42.5008 -40.3465,0 -74.7224,-14.237 -103.194,-42.7087 -28.4728,-28.5413 -42.7087,-62.9173 -42.7087,-103.194 0,-40.6949 14.3752,-75.1394 43.0559,-103.403 28.6807,-28.1953 63.75,-42.2917 105.278,-42.2917zm-2.43071 81.8055c-17.0138,0 -31.389,6.25039 -43.3335,18.75 -11.9445,12.4299 -17.9161,27.4996 -17.9161,45.1394 0,17.6386 5.97165,32.7083 17.9858,45.1382 12.0142,12.4996 26.3894,18.75 43.2638,18.75 17.0835,0 31.5283,-6.18071 43.4031,-18.6106 11.8748,-12.4311 17.778,-27.5008 17.778,-45.2776 0,-17.778 -5.90315,-32.8476 -17.778,-45.2787 -11.8748,-12.4299 -26.3197,-18.6106 -43.4031,-18.6106z"/>
  <path id="12345" class="fil5" d="M2584.99 480.653l0 203.055 -82.5697 0 0 -277.709 106.042 0c32.2925,0 57.2917,7.98661 75.0697,24.0283 19.7917,17.9161 29.7224,40.6252 29.7224,68.1248 0,28.1256 -12.2917,51.7358 -36.8055,71.0421l47.5689 114.514 -86.6657 0 -40.0701 -89.5134 0 -71.3894 6.52795 0c17.361,0 26.0421,-7.5 26.0421,-22.4303 0,-13.1256 -10.0701,-19.722 -30.1394,-19.722l-14.7224 0z"/>
  <path id="123456" class="fil5" d="M2869.3 528.083l78.75 0c16.9453,21.0425 25.4173,43.1953 25.4173,66.528 0,27.1535 -9.93071,49.9311 -29.7921,68.4035 -19.8614,18.4028 -44.3752,27.639 -73.4031,27.639 -37.7079,0 -69.7217,-14.3055 -96.0413,-42.9177 -26.3197,-28.611 -39.4441,-63.5409 -39.4441,-104.583 0,-41.25 13.4031,-75.5551 40.2083,-102.986 26.7354,-27.4299 60.2079,-41.1106 100.416,-41.1106 13.6807,0 28.8898,2.77795 45.5563,8.40236l0 82.5697c-13.0559,-6.11102 -24.861,-9.16654 -35.6256,-9.16654 -19.3748,0 -35.2075,6.04134 -47.4992,18.1252 -12.2917,12.0827 -18.4028,27.7075 -18.4028,47.0138 0,19.6524 5.69409,35.2772 17.0823,46.8059 11.3894,11.5276 26.8063,17.2913 46.1811,17.2913 12.3614,0 18.5421,-3.61181 18.5421,-10.8331 0,-5.41654 -4.09724,-8.12598 -12.2232,-8.12598l-19.722 0 0 -63.0555z"/>
  <path id="1234567" class="fil1" d="M2081.45 592.527c13.2638,0 24.7217,4.79173 34.2354,14.4449 9.58346,9.65315 14.3752,21.111 14.3752,34.3748 0,13.3335 -4.72205,24.5835 -14.2358,33.8894 -9.51378,9.30591 -20.9728,13.9583 -34.3748,13.9583 -14.028,0 -25.487,-4.51417 -34.5142,-13.5413 -9.02835,-9.02835 -13.5413,-20.4862 -13.5413,-34.5142 0,-13.5413 4.65236,-25.0701 14.0268,-34.4445 9.37559,-9.44409 20.6953,-14.1673 34.0287,-14.1673z"/>
  <polygon id="12345678" class="fil0 str3" points="1327.08,350.459 1240.41,512.542 1329.99,683.708 1225.74,683.708 1184.74,602.875 1150.08,683.708 1047.58,683.708 1139.08,515.209 1052.41,350.459 1155.74,350.459 1194.49,426.125 1225.74,350.459 "/>
  <path id="123456789" class="fil0 str3" d="M1339.74 350.459l99.0839 0 0 197.999c0,15.4169 2.49921,25.7504 7.5,30.9177 4.91575,5.08228 14.7496,7.66654 29.4165,7.66654l5.16614 0 0 96.6661 -26.4165 0c-36.1665,0 -64.3335,-10.5 -84.4996,-31.5839 -20.1673,-21.0827 -30.2504,-50.3327 -30.2504,-87.8327l0 -213.833z"/>
  <path id="12345678910" class="fil0 str3" d="M1622.74 568.459l0 -87.4169c20.0008,0 30,-7.66654 30,-22.9169 0,-13.9996 -7.66654,-21 -22.9996,-21 -15.4169,0 -23.1661,9.58346 -23.1661,28.8331l0 217.75 -99.0839 0 0 -207.5c0,-21.5008 2.16732,-39.1665 6.50079,-52.9169 4.24961,-13.7504 11.6657,-26.5831 22.0831,-38.4165 11.6669,-13.1669 26.3327,-23.5831 43.9157,-31.2496 17.5843,-7.66654 35.7508,-11.5004 54.4169,-11.5004 33.9165,0 62.3339,11.4165 85.3335,34.1669 23.0835,22.8331 34.5839,51.0827 34.5839,84.75 0,32.7496 -10.3335,59.25 -31.0004,79.5827 -18.9165,18.75 -47.3339,28.0831 -85.4161,28.0831l-15.1677 -0.249213z"/>
  <path id="1234567891011" class="fil0 str3" d="M1973.08 480.125l0 74.25 -64.7504 0c-8.74961,0 -15,1.33346 -18.6661,3.91654 -3.66732,2.58307 -5.50039,6.91654 -5.50039,13.0831 0,7.00039 1.83307,11.5831 5.58307,13.8331 3.75,2.16732 11.4165,3.25039 22.9996,3.25039l66.6673 0 0 95.25 -77.9173 0c-36.5823,0 -64.5827,-8.74961 -83.9161,-26.25 -19.4161,-17.5004 -29.0835,-42.75 -29.0835,-75.8327l0 -130.584c0,-31.9169 9.16654,-56.6669 27.4169,-74.25 18.3331,-17.5831 44.0835,-26.3327 77.25,-26.3327l86.25 0 0 95.6657 -63.2504 0c-17.0835,0 -25.6665,5.58307 -25.6665,16.6665 0,6.50079 1.99961,11.0008 6.08386,13.5 4.08307,2.58425 11.3327,3.83386 21.75,3.83386l54.75 0z"/>
  <path id="123456789101112" class="fil0 str3" d="M2081.45 592.527c13.2638,0 24.7217,4.79173 34.2354,14.4449 9.58346,9.65315 14.3752,21.111 14.3752,34.3748 0,13.3335 -4.72205,24.5835 -14.2358,33.8894 -9.51378,9.30591 -20.9728,13.9583 -34.3748,13.9583 -14.028,0 -25.487,-4.51417 -34.5142,-13.5413 -9.02835,-9.02835 -13.5413,-20.4862 -13.5413,-34.5142 0,-13.5413 4.65236,-25.0701 14.0268,-34.4445 9.37559,-9.44409 20.6953,-14.1673 34.0287,-14.1673z"/>
  <path id="12345678910111213" class="fil0 str3" d="M2320.13 399.056c39.3059,0 73.0559,14.3055 101.18,42.9165 28.1256,28.611 42.2232,62.9161 42.2232,102.778 0,40.5555 -14.1673,75 -42.5008,103.402 -28.3335,28.3335 -62.8465,42.5008 -103.333,42.5008 -40.3465,0 -74.7224,-14.237 -103.194,-42.7087 -28.4728,-28.5413 -42.7087,-62.9173 -42.7087,-103.194 0,-40.6949 14.3752,-75.1394 43.0559,-103.403 28.6807,-28.1953 63.75,-42.2917 105.278,-42.2917zm-2.43071 81.8055c-17.0138,0 -31.389,6.25039 -43.3335,18.75 -11.9445,12.4299 -17.9161,27.4996 -17.9161,45.1394 0,17.6386 5.97165,32.7083 17.9858,45.1382 12.0142,12.4996 26.3894,18.75 43.2638,18.75 17.0835,0 31.5283,-6.18071 43.4031,-18.6106 11.8748,-12.4311 17.778,-27.5008 17.778,-45.2776 0,-17.778 -5.90315,-32.8476 -17.778,-45.2787 -11.8748,-12.4299 -26.3197,-18.6106 -43.4031,-18.6106z"/>
  <path id="1234567891011121314" class="fil0 str3" d="M2584.99 480.653l0 203.055 -82.5697 0 0 -277.709 106.042 0c32.2925,0 57.2917,7.98661 75.0697,24.0283 19.7917,17.9161 29.7224,40.6252 29.7224,68.1248 0,28.1256 -12.2917,51.7358 -36.8055,71.0421l47.5689 114.514 -86.6657 0 -40.0701 -89.5134 0 -71.3894 6.52795 0c17.361,0 26.0421,-7.5 26.0421,-22.4303 0,-13.1256 -10.0701,-19.722 -30.1394,-19.722l-14.7224 0z"/>
  <path id="123456789101112131415" class="fil0 str3" d="M2869.3 528.083l78.75 0c16.9453,21.0425 25.4173,43.1953 25.4173,66.528 0,27.1535 -9.93071,49.9311 -29.7921,68.4035 -19.8614,18.4028 -44.3752,27.639 -73.4031,27.639 -37.7079,0 -69.7217,-14.3055 -96.0413,-42.9177 -26.3197,-28.611 -39.4441,-63.5409 -39.4441,-104.583 0,-41.25 13.4031,-75.5551 40.2083,-102.986 26.7354,-27.4299 60.2079,-41.1106 100.416,-41.1106 13.6807,0 28.8898,2.77795 45.5563,8.40236l0 82.5697c-13.0559,-6.11102 -24.861,-9.16654 -35.6256,-9.16654 -19.3748,0 -35.2075,6.04134 -47.4992,18.1252 -12.2917,12.0827 -18.4028,27.7075 -18.4028,47.0138 0,19.6524 5.69409,35.2772 17.0823,46.8059 11.3894,11.5276 26.8063,17.2913 46.1811,17.2913 12.3614,0 18.5421,-3.61181 18.5421,-10.8331 0,-5.41654 -4.09724,-8.12598 -12.2232,-8.12598l-19.722 0 0 -63.0555z"/>
 </g>
</svg>
